HIERARCHY
ROOT reference
{
	OFFSET 0.000000 0.000000 0.000000
	CHANNELS 6 Xposition Yposition Zposition Xrotation Yrotation Zrotation
	JOINT root
	{
		OFFSET 0.000000 88.267502 0.000000
		CHANNELS 3 Xrotation Yrotation Zrotation
		JOINT Hips
		{
			OFFSET 0.000000 0.000000 0.000000
			CHANNELS 3 Xrotation Yrotation Zrotation
			JOINT Spine
			{
				OFFSET 0.026472 -0.105469 0.013598
				CHANNELS 3 Xrotation Yrotation Zrotation
				JOINT Spine1
				{
					OFFSET -4.853550 17.193298 -5.027490
					CHANNELS 3 Xrotation Yrotation Zrotation
					JOINT Spine2
					{
						OFFSET -3.457120 17.043396 -6.489560
						CHANNELS 3 Xrotation Yrotation Zrotation
						JOINT Neck
						{
							OFFSET -5.140712 15.586197 -8.669387
							CHANNELS 3 Xrotation Yrotation Zrotation
							JOINT Head
							{
								OFFSET -4.152541 8.554825 -6.523951
								CHANNELS 3 Xrotation Yrotation Zrotation
								End Site
								{
									OFFSET 0.000000 0.100006 0.000000
								}
							}
						}
						JOINT RightShoulder
						{
							OFFSET -3.299632 14.542297 -11.633702
							CHANNELS 3 Xrotation Yrotation Zrotation
							JOINT RightArm
							{
								OFFSET 5.333378 -8.032135 -12.870300
								CHANNELS 3 Xrotation Yrotation Zrotation
								JOINT RightForeArm
								{
									OFFSET 0.595351 -13.786201 -25.966301
									CHANNELS 3 Xrotation Yrotation Zrotation
									JOINT RightHand
									{
										OFFSET -13.517000 -1.520027 -20.889702
										CHANNELS 3 Xrotation Yrotation Zrotation
										End Site
										{
											OFFSET 0.000000 0.099998 0.000000
										}
									}
								}
							}
						}
						JOINT LeftShoulder
						{
							OFFSET -6.992730 16.618195 -5.713748
							CHANNELS 3 Xrotation Yrotation Zrotation
							JOINT LeftArm
							{
								OFFSET -6.718698 3.247314 14.245000
								CHANNELS 3 Xrotation Yrotation Zrotation
								JOINT LeftForeArm
								{
									OFFSET 8.817433 -14.592697 23.957703
									CHANNELS 3 Xrotation Yrotation Zrotation
									JOINT LeftHand
									{
										OFFSET -10.526399 -21.311096 7.512081
										CHANNELS 3 Xrotation Yrotation Zrotation
										End Site
										{
											OFFSET 0.000000 0.099998 0.000000
										}
									}
								}
							}
						}
					}
				}
			}
			JOINT RightUpLeg
			{
				OFFSET 4.593210 -0.383102 -8.373460
				CHANNELS 3 Xrotation Yrotation Zrotation
				JOINT RightLeg
				{
					OFFSET -10.204903 -39.044300 -19.965099
					CHANNELS 3 Xrotation Yrotation Zrotation
					JOINT RightFoot
					{
						OFFSET 4.840428 -40.875702 -1.147751
						CHANNELS 3 Xrotation Yrotation Zrotation
						JOINT RightToe
						{
							OFFSET -9.736710 -6.853460 -13.504299
							CHANNELS 3 Xrotation Yrotation Zrotation
							End Site
							{
								OFFSET 0.000000 0.100000 0.000000
							}
						}
					}
				}
			}
			JOINT LeftUpLeg
			{
				OFFSET -4.593220 0.383095 8.373440
				CHANNELS 3 Xrotation Yrotation Zrotation
				JOINT LeftLeg
				{
					OFFSET -5.424767 -42.688202 13.247400
					CHANNELS 3 Xrotation Yrotation Zrotation
					JOINT LeftFoot
					{
						OFFSET 11.094802 -37.687500 12.334200
						CHANNELS 3 Xrotation Yrotation Zrotation
						JOINT LeftToe
						{
							OFFSET -16.356800 -7.519040 -0.239281
							CHANNELS 3 Xrotation Yrotation Zrotation
							End Site
							{
								OFFSET 0.000000 0.100000 0.000000
							}
						}
					}
				}
			}
		}
	}
}
MOTION
Frames: 6
Frame Time: 0.041667
4.511232 0.000000 -99.723297 -0.000000 0.000000 -0.000000 -6.735888 0.539702 3.249864 0.074336 0.027388 0.039515 -2.322055 -0.336736 0.967220 -3.257214 -0.223752 1.342596 -2.230330 -0.066977 0.888389 3.959301 0.418882 -3.843711 8.836584 3.108801 -3.936880 7.102894 6.798777 -1.488428 22.955624 -2.977702 21.751887 -6.938965 -11.123241 4.916070 -32.931095 24.633057 -21.155845 1.618901 3.216627 -0.441778 -1.778143 6.837013 -12.530425 -26.344588 13.485875 23.307711 -0.081235 1.118767 -3.410702 23.311528 11.372144 -11.593403 -17.410470 -4.607325 13.447854 4.283957 8.314445 -13.703893 -3.748896 -0.200537 -0.303936 -14.841224 0.876768 7.436084 -0.414280 -6.754860 -21.494417 4.654037 9.477538 16.726980 0.000001 0.000321 -0.000003 
4.765132 0.000000 -100.557999 -0.000000 0.000000 -0.000000 -6.970661 0.905081 3.332458 0.089143 0.032811 0.047382 -2.282504 -0.430415 1.039499 -3.205575 -0.333043 1.458531 -2.196438 -0.131231 0.975968 3.887184 0.353195 -3.823955 8.744415 2.951033 -3.974375 6.876406 6.532670 -1.379234 22.797373 -3.379789 20.842420 -6.804846 -10.890448 4.827929 -32.651453 24.019873 -20.238667 1.591507 2.753196 -0.254374 -1.827137 5.645556 -12.755608 -25.287669 13.198194 22.351401 -0.294325 0.179726 -2.954706 22.909066 11.575731 -11.517669 -17.315320 -4.570156 13.376251 4.648457 8.089428 -13.021382 -3.919225 -0.211156 -0.304027 -14.196754 1.513095 7.134673 -0.410802 -6.754264 -21.463876 4.504268 9.563673 17.234995 0.000001 0.000530 -0.000004 
4.731583 0.000000 -101.083000 -0.000000 0.000000 -0.000000 -7.116516 1.062506 3.143413 0.103997 0.038346 0.055270 -2.241015 -0.510845 1.094684 -3.150840 -0.427325 1.548423 -2.160171 -0.187438 1.044751 3.826820 0.346269 -3.640551 8.543472 2.854183 -3.708162 6.721028 6.439619 -1.363858 22.578655 -3.431195 20.140753 -6.716666 -10.737784 4.769823 -32.284238 23.637652 -19.511141 1.477334 2.704193 -0.293333 -2.099029 4.617468 -12.583415 -23.679865 12.724245 20.898830 -0.131347 -0.491679 -2.519989 22.402295 11.562961 -11.183052 -17.158407 -4.509119 13.257976 4.920546 8.045592 -12.773148 -4.088190 -0.221708 -0.303693 -13.838908 2.328922 7.096161 -0.409830 -6.753493 -21.454483 4.857419 9.796754 17.786981 0.000000 0.000752 0.000002 
4.701602 0.000000 -101.874001 -0.000000 0.000000 -0.000000 -6.932034 1.148753 2.596928 0.133903 0.049347 0.071160 -2.099716 -0.543828 1.136654 -2.959115 -0.452659 1.610893 -2.030663 -0.198616 1.091002 3.583708 0.301345 -3.478588 8.057027 2.646767 -3.599865 6.373139 6.167657 -1.290575 21.993829 -3.442926 18.215747 -6.759793 -10.812421 4.798269 -31.162537 22.365673 -18.260868 1.007570 2.783556 -0.572276 -2.214151 3.785633 -13.071082 -20.149584 11.525369 17.718993 0.091372 -1.031096 -1.985431 21.008212 11.118950 -10.223314 -16.439032 -4.234001 12.714929 4.725150 8.482583 -12.659981 -4.419451 -0.242270 -0.304884 -14.044890 3.355579 7.350271 -0.412583 -6.752528 -21.476608 7.160244 10.258036 17.981472 0.000003 0.000968 -0.000002 
4.692582 0.000000 -101.834000 -0.000000 0.000000 -0.000000 -6.698853 1.227038 2.345710 0.148893 0.054930 0.079118 -1.994280 -0.586815 1.114406 -2.813948 -0.509706 1.588257 -1.931530 -0.238318 1.081734 3.516540 0.240822 -3.526065 8.002053 2.542531 -3.752447 6.269670 6.057370 -1.250873 21.652407 -3.502350 17.047998 -6.797305 -10.877344 4.822978 -30.396299 21.472004 -17.442650 0.847862 2.836811 -0.677114 -2.263898 3.801547 -13.262612 -18.578188 10.919944 16.308489 0.047418 -1.182450 -1.823991 20.236254 11.105586 -9.499045 -15.727557 -3.969490 12.176428 4.471109 8.631898 -12.309372 -4.580429 -0.252337 -0.304573 -14.072650 2.797640 7.992422 -0.408984 -6.752016 -21.444362 7.412340 10.055925 17.197166 0.000002 0.001166 -0.000004 
4.683784 0.000000 -101.575996 -0.000000 0.000000 -0.000000 -5.658480 2.238204 2.358897 0.048060 0.017661 0.025554 -1.742179 -0.773923 0.958884 -2.441194 -0.860388 1.430910 -1.674836 -0.486083 1.006757 3.050021 0.032933 -3.517021 7.328102 2.045676 -4.113016 5.733924 5.784409 -1.236953 20.825219 -4.420471 14.873123 -6.506741 -10.375436 4.630940 -28.352964 19.091624 -15.245278 0.474070 2.982933 -0.928745 -2.490275 3.232287 -12.628423 -15.761135 9.720022 13.788590 0.096140 -0.653073 -1.836509 18.061899 11.565967 -7.626279 -13.157052 -3.076121 10.219597 3.530783 7.592154 -11.014877 -4.889883 -0.271531 -0.305817 -14.013607 2.749912 7.554417 -0.409226 -6.751382 -21.444434 6.864862 11.251110 18.811835 -0.000001 0.001334 -0.000000 
